<svg xmlns="http://www.w3.org/2000/svg" xmlns:xlink="http://www.w3.org/1999/xlink" width="400" zoomAndPan="magnify" viewBox="0 0 300 149.999998" height="200" preserveAspectRatio="xMidYMid meet" version="1.0"><defs><g/></defs><g fill="#014871" fill-opacity="1"><g transform="translate(149.989675, 78.744151)"><g><path d="M 0 0 Z M 0 0 "/></g></g></g><g fill="#014871" fill-opacity="1"><g transform="translate(149.992533, 78.744151)"><g><path d="M 0 0 Z M 0 0 "/></g></g></g><g fill="#014871" fill-opacity="1"><g transform="translate(149.994069, 78.744151)"><g><path d="M 0 0 Z M 0 0 "/></g></g></g><g fill="#014871" fill-opacity="1"><g transform="translate(149.995606, 78.744151)"><g><path d="M 0 0 Z M 0 0 "/></g></g></g><g fill="#014871" fill-opacity="1"><g transform="translate(149.997142, 78.744151)"><g><path d="M 0 0 Z M 0 0 "/></g></g></g><g fill="#014871" fill-opacity="1"><g transform="translate(150.003402, 78.744151)"><g/></g></g><g fill="#014871" fill-opacity="1"><g transform="translate(150.003971, 78.744151)"><g><path d="M 0 0 Z M 0 0 "/></g></g></g><g fill="#014871" fill-opacity="1"><g transform="translate(150.005527, 78.744151)"><g><path d="M 0 0 Z M 0 0 "/></g></g></g><g fill="#014871" fill-opacity="1"><g transform="translate(150.007064, 78.744151)"><g><path d="M 0 0 Z M 0 0 "/></g></g></g><g fill="#014871" fill-opacity="1"><g transform="translate(150.008807, 78.744151)"><g><path d="M 0 0 Z M 0 0 Z M 0 0 Z M 0 0 "/></g></g></g><g fill="#014871" fill-opacity="1"><g transform="translate(150.008444, 78.745127)"><g><path d="M 0 0 Z M 0 0 Z M 0 0 Z M 0 0 Z M 0 0 "/></g></g></g><g fill="#014871" fill-opacity="1"><g transform="translate(150.00929, 78.745127)"><g><path d="M 0 0 Z M 0 0 Z M 0 0 "/></g></g></g><g fill="#014871" fill-opacity="1"><g transform="translate(150.009704, 78.745127)"><g><path d="M 0 0 Z M 0 0 Z M 0 0 "/></g></g></g><g fill="#014871" fill-opacity="1"><g transform="translate(150.010092, 78.745127)"><g><path d="M 0 0 Z M 0 0 Z M 0 0 Z M 0 0 "/></g></g></g><g fill="#014871" fill-opacity="1"><g transform="translate(150.007731, 78.745127)"><g><path d="M 0 0 Z M 0 0 Z M 0 0 "/></g></g></g><g fill="#014871" fill-opacity="1"><g transform="translate(150.00811, 78.745127)"><g><path d="M 0 0 Z M 0 0 Z M 0 0 "/></g></g></g><g fill="#014871" fill-opacity="1"><g transform="translate(5.319137, 83.999997)"><g><path d="M 0.375 -25.484375 C 0.375 -25.847656 0.476562 -26.117188 0.6875 -26.296875 C 0.90625 -26.472656 1.191406 -26.59375 1.546875 -26.65625 C 1.898438 -26.71875 2.28125 -26.75 2.6875 -26.75 L 9.53125 -26.75 C 9.8125 -26.75 10.09375 -26.707031 10.375 -26.625 C 10.65625 -26.550781 10.882812 -26.421875 11.0625 -26.234375 C 11.238281 -26.054688 11.328125 -25.8125 11.328125 -25.5 C 11.328125 -25.09375 11.289062 -24.769531 11.21875 -24.53125 C 11.15625 -24.289062 11.082031 -24.0625 11 -23.84375 C 10.914062 -23.625 10.835938 -23.359375 10.765625 -23.046875 C 10.691406 -22.734375 10.65625 -22.296875 10.65625 -21.734375 C 10.65625 -21.253906 10.695312 -20.753906 10.78125 -20.234375 C 10.925781 -19.140625 11.207031 -17.816406 11.625 -16.265625 C 12.039062 -14.710938 12.566406 -12.804688 13.203125 -10.546875 C 13.328125 -10.128906 13.453125 -9.78125 13.578125 -9.5 C 13.710938 -9.21875 13.84375 -9.085938 13.96875 -9.109375 C 14.09375 -9.128906 14.207031 -9.28125 14.3125 -9.5625 C 14.425781 -9.851562 14.535156 -10.191406 14.640625 -10.578125 C 14.929688 -11.671875 15.15625 -12.6875 15.3125 -13.625 C 15.476562 -14.5625 15.585938 -15.457031 15.640625 -16.3125 C 15.691406 -17.175781 15.691406 -18.046875 15.640625 -18.921875 C 15.585938 -19.796875 15.492188 -20.734375 15.359375 -21.734375 C 15.285156 -22.265625 15.179688 -22.710938 15.046875 -23.078125 C 14.921875 -23.441406 14.789062 -23.757812 14.65625 -24.03125 C 14.519531 -24.300781 14.398438 -24.550781 14.296875 -24.78125 C 14.203125 -25.007812 14.15625 -25.242188 14.15625 -25.484375 C 14.15625 -25.867188 14.265625 -26.148438 14.484375 -26.328125 C 14.710938 -26.515625 14.988281 -26.628906 15.3125 -26.671875 C 15.644531 -26.722656 15.957031 -26.75 16.25 -26.75 L 23.3125 -26.75 C 23.601562 -26.75 23.882812 -26.707031 24.15625 -26.625 C 24.4375 -26.550781 24.664062 -26.421875 24.84375 -26.234375 C 25.03125 -26.054688 25.125 -25.8125 25.125 -25.5 C 25.125 -25.09375 25.085938 -24.769531 25.015625 -24.53125 C 24.941406 -24.289062 24.863281 -24.0625 24.78125 -23.84375 C 24.695312 -23.625 24.617188 -23.359375 24.546875 -23.046875 C 24.484375 -22.734375 24.453125 -22.296875 24.453125 -21.734375 C 24.453125 -21.253906 24.488281 -20.753906 24.5625 -20.234375 C 24.707031 -19.140625 24.988281 -17.816406 25.40625 -16.265625 C 25.820312 -14.710938 26.351562 -12.804688 27 -10.546875 C 27.125 -10.128906 27.25 -9.78125 27.375 -9.5 C 27.5 -9.21875 27.625 -9.085938 27.75 -9.109375 C 27.875 -9.128906 27.992188 -9.28125 28.109375 -9.5625 C 28.222656 -9.851562 28.328125 -10.191406 28.421875 -10.578125 C 28.722656 -11.671875 28.953125 -12.6875 29.109375 -13.625 C 29.273438 -14.5625 29.378906 -15.457031 29.421875 -16.3125 C 29.472656 -17.175781 29.472656 -18.046875 29.421875 -18.921875 C 29.378906 -19.796875 29.289062 -20.734375 29.15625 -21.734375 C 29.070312 -22.296875 28.976562 -22.734375 28.875 -23.046875 C 28.769531 -23.359375 28.671875 -23.625 28.578125 -23.84375 C 28.484375 -24.0625 28.398438 -24.289062 28.328125 -24.53125 C 28.265625 -24.769531 28.234375 -25.09375 28.234375 -25.5 C 28.234375 -25.8125 28.320312 -26.054688 28.5 -26.234375 C 28.6875 -26.421875 28.914062 -26.550781 29.1875 -26.625 C 29.46875 -26.707031 29.753906 -26.75 30.046875 -26.75 L 36.359375 -26.75 C 36.773438 -26.75 37.15625 -26.710938 37.5 -26.640625 C 37.851562 -26.578125 38.132812 -26.457031 38.34375 -26.28125 C 38.5625 -26.101562 38.671875 -25.835938 38.671875 -25.484375 C 38.671875 -25.140625 38.617188 -24.84375 38.515625 -24.59375 C 38.410156 -24.34375 38.269531 -24.101562 38.09375 -23.875 C 37.925781 -23.644531 37.738281 -23.378906 37.53125 -23.078125 C 37.320312 -22.773438 37.101562 -22.40625 36.875 -21.96875 C 36.65625 -21.53125 36.441406 -20.96875 36.234375 -20.28125 C 35.859375 -19.070312 35.535156 -18.007812 35.265625 -17.09375 C 35.003906 -16.1875 34.765625 -15.363281 34.546875 -14.625 C 34.335938 -13.894531 34.132812 -13.1875 33.9375 -12.5 C 33.75 -11.820312 33.554688 -11.109375 33.359375 -10.359375 C 33.160156 -9.617188 32.9375 -8.789062 32.6875 -7.875 C 32.445312 -6.957031 32.160156 -5.894531 31.828125 -4.6875 C 31.554688 -3.695312 31.316406 -2.894531 31.109375 -2.28125 C 30.898438 -1.675781 30.703125 -1.207031 30.515625 -0.875 C 30.335938 -0.550781 30.144531 -0.328125 29.9375 -0.203125 C 29.726562 -0.078125 29.488281 -0.0078125 29.21875 0 C 28.945312 0.0078125 28.625 0.015625 28.25 0.015625 L 24.75 0.015625 C 24.375 0.015625 24.046875 0.0078125 23.765625 0 C 23.492188 -0.0078125 23.242188 -0.078125 23.015625 -0.203125 C 22.796875 -0.328125 22.582031 -0.550781 22.375 -0.875 C 22.175781 -1.207031 21.96875 -1.675781 21.75 -2.28125 C 21.53125 -2.894531 21.285156 -3.695312 21.015625 -4.6875 C 20.703125 -5.832031 20.425781 -6.84375 20.1875 -7.71875 C 19.945312 -8.59375 19.726562 -9.390625 19.53125 -10.109375 C 19.476562 -9.929688 19.429688 -9.75 19.390625 -9.5625 C 19.347656 -9.375 19.296875 -9.179688 19.234375 -8.984375 C 19.066406 -8.390625 18.882812 -7.738281 18.6875 -7.03125 C 18.488281 -6.332031 18.273438 -5.550781 18.046875 -4.6875 C 17.765625 -3.695312 17.519531 -2.894531 17.3125 -2.28125 C 17.113281 -1.675781 16.921875 -1.207031 16.734375 -0.875 C 16.546875 -0.550781 16.347656 -0.328125 16.140625 -0.203125 C 15.941406 -0.078125 15.707031 -0.0078125 15.4375 0 C 15.164062 0.0078125 14.84375 0.015625 14.46875 0.015625 L 10.96875 0.015625 C 10.59375 0.015625 10.265625 0.0078125 9.984375 0 C 9.703125 -0.0078125 9.453125 -0.078125 9.234375 -0.203125 C 9.015625 -0.328125 8.800781 -0.550781 8.59375 -0.875 C 8.382812 -1.207031 8.171875 -1.675781 7.953125 -2.28125 C 7.742188 -2.894531 7.503906 -3.695312 7.234375 -4.6875 C 6.890625 -5.894531 6.59375 -6.957031 6.34375 -7.875 C 6.101562 -8.789062 5.882812 -9.617188 5.6875 -10.359375 C 5.488281 -11.109375 5.296875 -11.820312 5.109375 -12.5 C 4.921875 -13.1875 4.722656 -13.894531 4.515625 -14.625 C 4.304688 -15.363281 4.0625 -16.1875 3.78125 -17.09375 C 3.507812 -18.007812 3.191406 -19.070312 2.828125 -20.28125 C 2.617188 -20.96875 2.398438 -21.53125 2.171875 -21.96875 C 1.953125 -22.40625 1.734375 -22.773438 1.515625 -23.078125 C 1.296875 -23.378906 1.097656 -23.644531 0.921875 -23.875 C 0.753906 -24.101562 0.617188 -24.34375 0.515625 -24.59375 C 0.421875 -24.84375 0.375 -25.140625 0.375 -25.484375 Z M 0.375 -25.484375 "/></g></g></g><g fill="#014871" fill-opacity="1"><g transform="translate(45.254246, 83.999997)"><g><path d="M 2.0625 -13.75 C 2.0625 -15.039062 2.019531 -16.148438 1.9375 -17.078125 C 1.863281 -18.015625 1.757812 -18.816406 1.625 -19.484375 C 1.5 -20.148438 1.363281 -20.734375 1.21875 -21.234375 C 1.070312 -21.734375 0.929688 -22.179688 0.796875 -22.578125 C 0.671875 -22.984375 0.566406 -23.382812 0.484375 -23.78125 C 0.410156 -24.175781 0.375 -24.613281 0.375 -25.09375 C 0.375 -25.539062 0.476562 -25.878906 0.6875 -26.109375 C 0.90625 -26.335938 1.171875 -26.5 1.484375 -26.59375 C 1.804688 -26.6875 2.117188 -26.734375 2.421875 -26.734375 C 2.734375 -26.742188 2.992188 -26.75 3.203125 -26.75 L 18.1875 -26.75 C 18.726562 -26.75 19.171875 -26.578125 19.515625 -26.234375 C 19.859375 -25.898438 20.03125 -25.457031 20.03125 -24.90625 L 20.03125 -19.59375 C 20.03125 -19.269531 20.007812 -18.941406 19.96875 -18.609375 C 19.9375 -18.273438 19.828125 -18 19.640625 -17.78125 C 19.453125 -17.570312 19.140625 -17.46875 18.703125 -17.46875 C 18.265625 -17.46875 17.828125 -17.601562 17.390625 -17.875 C 16.960938 -18.15625 16.515625 -18.5 16.046875 -18.90625 C 15.585938 -19.320312 15.078125 -19.726562 14.515625 -20.125 C 13.953125 -20.53125 13.320312 -20.867188 12.625 -21.140625 C 11.925781 -21.421875 11.125 -21.5625 10.21875 -21.5625 C 9.875 -21.5625 9.625 -21.453125 9.46875 -21.234375 C 9.3125 -21.023438 9.210938 -20.726562 9.171875 -20.34375 C 9.140625 -19.957031 9.125 -19.507812 9.125 -19 C 9.125 -18.320312 9.175781 -17.765625 9.28125 -17.328125 C 9.394531 -16.898438 9.628906 -16.59375 9.984375 -16.40625 C 10.347656 -16.21875 10.894531 -16.144531 11.625 -16.1875 C 12.1875 -16.21875 12.664062 -16.273438 13.0625 -16.359375 C 13.46875 -16.441406 13.84375 -16.519531 14.1875 -16.59375 C 14.539062 -16.664062 14.910156 -16.703125 15.296875 -16.703125 C 15.785156 -16.703125 16.128906 -16.539062 16.328125 -16.21875 C 16.523438 -15.894531 16.625 -15.554688 16.625 -15.203125 L 16.625 -11.46875 C 16.625 -11.113281 16.523438 -10.769531 16.328125 -10.4375 C 16.128906 -10.113281 15.785156 -9.953125 15.296875 -9.953125 C 14.910156 -9.953125 14.539062 -9.988281 14.1875 -10.0625 C 13.84375 -10.144531 13.46875 -10.226562 13.0625 -10.3125 C 12.664062 -10.394531 12.1875 -10.453125 11.625 -10.484375 C 10.925781 -10.515625 10.394531 -10.441406 10.03125 -10.265625 C 9.675781 -10.085938 9.4375 -9.789062 9.3125 -9.375 C 9.1875 -8.96875 9.125 -8.425781 9.125 -7.75 C 9.125 -7.25 9.140625 -6.800781 9.171875 -6.40625 C 9.210938 -6.019531 9.3125 -5.71875 9.46875 -5.5 C 9.625 -5.289062 9.875 -5.1875 10.21875 -5.1875 C 11.125 -5.1875 11.925781 -5.320312 12.625 -5.59375 C 13.320312 -5.875 13.953125 -6.21875 14.515625 -6.625 C 15.078125 -7.039062 15.585938 -7.445312 16.046875 -7.84375 C 16.515625 -8.25 16.960938 -8.585938 17.390625 -8.859375 C 17.828125 -9.140625 18.265625 -9.28125 18.703125 -9.28125 C 19.140625 -9.28125 19.453125 -9.171875 19.640625 -8.953125 C 19.828125 -8.742188 19.9375 -8.472656 19.96875 -8.140625 C 20.007812 -7.816406 20.03125 -7.488281 20.03125 -7.15625 L 20.03125 -1.84375 C 20.03125 -1.289062 19.859375 -0.84375 19.515625 -0.5 C 19.171875 -0.164062 18.726562 0 18.1875 0 L 2.890625 0 C 2.691406 0 2.453125 0 2.171875 0 C 1.898438 -0.0078125 1.625 -0.0625 1.34375 -0.15625 C 1.0625 -0.25 0.828125 -0.410156 0.640625 -0.640625 C 0.460938 -0.867188 0.375 -1.207031 0.375 -1.65625 C 0.375 -2.28125 0.425781 -2.859375 0.53125 -3.390625 C 0.644531 -3.921875 0.785156 -4.472656 0.953125 -5.046875 C 1.117188 -5.617188 1.289062 -6.285156 1.46875 -7.046875 C 1.644531 -7.804688 1.785156 -8.722656 1.890625 -9.796875 C 2.003906 -10.878906 2.0625 -12.195312 2.0625 -13.75 Z M 2.0625 -13.75 "/></g></g></g><g fill="#014871" fill-opacity="1"><g transform="translate(66.726499, 83.999997)"><g><path d="M 0.375 -25.09375 C 0.375 -25.539062 0.476562 -25.878906 0.6875 -26.109375 C 0.90625 -26.335938 1.171875 -26.5 1.484375 -26.59375 C 1.804688 -26.6875 2.117188 -26.734375 2.421875 -26.734375 C 2.734375 -26.742188 2.992188 -26.75 3.203125 -26.75 L 7.984375 -26.75 C 8.179688 -26.75 8.4375 -26.742188 8.75 -26.734375 C 9.0625 -26.734375 9.375 -26.6875 9.6875 -26.59375 C 10 -26.5 10.265625 -26.335938 10.484375 -26.109375 C 10.703125 -25.878906 10.8125 -25.539062 10.8125 -25.09375 C 10.8125 -24.613281 10.769531 -24.175781 10.6875 -23.78125 C 10.613281 -23.382812 10.507812 -22.984375 10.375 -22.578125 C 10.25 -22.179688 10.113281 -21.734375 9.96875 -21.234375 C 9.820312 -20.734375 9.679688 -20.148438 9.546875 -19.484375 C 9.421875 -18.816406 9.316406 -18.015625 9.234375 -17.078125 C 9.160156 -16.148438 9.125 -15.039062 9.125 -13.75 L 9.125 -7.75 C 9.125 -7.25 9.140625 -6.800781 9.171875 -6.40625 C 9.210938 -6.019531 9.3125 -5.71875 9.46875 -5.5 C 9.625 -5.289062 9.875 -5.1875 10.21875 -5.1875 C 11.125 -5.1875 11.925781 -5.320312 12.625 -5.59375 C 13.320312 -5.875 13.953125 -6.21875 14.515625 -6.625 C 15.078125 -7.039062 15.585938 -7.445312 16.046875 -7.84375 C 16.515625 -8.25 16.960938 -8.585938 17.390625 -8.859375 C 17.828125 -9.140625 18.265625 -9.28125 18.703125 -9.28125 C 19.148438 -9.28125 19.46875 -9.164062 19.65625 -8.9375 C 19.84375 -8.71875 19.953125 -8.441406 19.984375 -8.109375 C 20.015625 -7.773438 20.03125 -7.457031 20.03125 -7.15625 L 20.03125 -1.84375 C 20.03125 -1.289062 19.859375 -0.84375 19.515625 -0.5 C 19.171875 -0.164062 18.726562 0 18.1875 0 L 2.890625 0 C 2.691406 0 2.453125 0 2.171875 0 C 1.898438 -0.0078125 1.625 -0.0625 1.34375 -0.15625 C 1.0625 -0.25 0.828125 -0.410156 0.640625 -0.640625 C 0.460938 -0.867188 0.375 -1.207031 0.375 -1.65625 C 0.375 -2.28125 0.425781 -2.859375 0.53125 -3.390625 C 0.644531 -3.921875 0.785156 -4.472656 0.953125 -5.046875 C 1.117188 -5.617188 1.289062 -6.285156 1.46875 -7.046875 C 1.644531 -7.804688 1.785156 -8.722656 1.890625 -9.796875 C 2.003906 -10.878906 2.0625 -12.195312 2.0625 -13.75 C 2.0625 -15.039062 2.019531 -16.148438 1.9375 -17.078125 C 1.863281 -18.015625 1.757812 -18.816406 1.625 -19.484375 C 1.5 -20.148438 1.363281 -20.734375 1.21875 -21.234375 C 1.070312 -21.734375 0.929688 -22.179688 0.796875 -22.578125 C 0.671875 -22.984375 0.566406 -23.382812 0.484375 -23.78125 C 0.410156 -24.175781 0.375 -24.613281 0.375 -25.09375 Z M 0.375 -25.09375 "/></g></g></g><g fill="#014871" fill-opacity="1"><g transform="translate(88.198756, 83.999997)"><g><path d="M 0.375 -25.09375 C 0.375 -25.539062 0.476562 -25.878906 0.6875 -26.109375 C 0.90625 -26.335938 1.171875 -26.5 1.484375 -26.59375 C 1.804688 -26.6875 2.117188 -26.734375 2.421875 -26.734375 C 2.734375 -26.742188 2.992188 -26.75 3.203125 -26.75 L 7.984375 -26.75 C 8.179688 -26.75 8.4375 -26.742188 8.75 -26.734375 C 9.0625 -26.734375 9.375 -26.6875 9.6875 -26.59375 C 10 -26.5 10.265625 -26.335938 10.484375 -26.109375 C 10.703125 -25.878906 10.8125 -25.539062 10.8125 -25.09375 C 10.8125 -24.613281 10.769531 -24.175781 10.6875 -23.78125 C 10.613281 -23.382812 10.507812 -22.984375 10.375 -22.578125 C 10.25 -22.179688 10.113281 -21.734375 9.96875 -21.234375 C 9.820312 -20.734375 9.679688 -20.148438 9.546875 -19.484375 C 9.421875 -18.816406 9.316406 -18.015625 9.234375 -17.078125 C 9.160156 -16.148438 9.125 -15.039062 9.125 -13.75 L 9.125 -7.75 C 9.125 -7.25 9.140625 -6.800781 9.171875 -6.40625 C 9.210938 -6.019531 9.3125 -5.71875 9.46875 -5.5 C 9.625 -5.289062 9.875 -5.1875 10.21875 -5.1875 C 11.125 -5.1875 11.925781 -5.320312 12.625 -5.59375 C 13.320312 -5.875 13.953125 -6.21875 14.515625 -6.625 C 15.078125 -7.039062 15.585938 -7.445312 16.046875 -7.84375 C 16.515625 -8.25 16.960938 -8.585938 17.390625 -8.859375 C 17.828125 -9.140625 18.265625 -9.28125 18.703125 -9.28125 C 19.148438 -9.28125 19.46875 -9.164062 19.65625 -8.9375 C 19.84375 -8.71875 19.953125 -8.441406 19.984375 -8.109375 C 20.015625 -7.773438 20.03125 -7.457031 20.03125 -7.15625 L 20.03125 -1.84375 C 20.03125 -1.289062 19.859375 -0.84375 19.515625 -0.5 C 19.171875 -0.164062 18.726562 0 18.1875 0 L 2.890625 0 C 2.691406 0 2.453125 0 2.171875 0 C 1.898438 -0.0078125 1.625 -0.0625 1.34375 -0.15625 C 1.0625 -0.25 0.828125 -0.410156 0.640625 -0.640625 C 0.460938 -0.867188 0.375 -1.207031 0.375 -1.65625 C 0.375 -2.28125 0.425781 -2.859375 0.53125 -3.390625 C 0.644531 -3.921875 0.785156 -4.472656 0.953125 -5.046875 C 1.117188 -5.617188 1.289062 -6.285156 1.46875 -7.046875 C 1.644531 -7.804688 1.785156 -8.722656 1.890625 -9.796875 C 2.003906 -10.878906 2.0625 -12.195312 2.0625 -13.75 C 2.0625 -15.039062 2.019531 -16.148438 1.9375 -17.078125 C 1.863281 -18.015625 1.757812 -18.816406 1.625 -19.484375 C 1.5 -20.148438 1.363281 -20.734375 1.21875 -21.234375 C 1.070312 -21.734375 0.929688 -22.179688 0.796875 -22.578125 C 0.671875 -22.984375 0.566406 -23.382812 0.484375 -23.78125 C 0.410156 -24.175781 0.375 -24.613281 0.375 -25.09375 Z M 0.375 -25.09375 "/></g></g></g><g fill="#014871" fill-opacity="1"><g transform="translate(109.671006, 83.999997)"><g><path d="M 2.0625 -13.375 C 2.0625 -14.695312 2.019531 -15.835938 1.9375 -16.796875 C 1.863281 -17.765625 1.757812 -18.59375 1.625 -19.28125 C 1.5 -19.976562 1.363281 -20.578125 1.21875 -21.078125 C 1.070312 -21.585938 0.929688 -22.046875 0.796875 -22.453125 C 0.671875 -22.867188 0.566406 -23.28125 0.484375 -23.6875 C 0.410156 -24.101562 0.375 -24.5625 0.375 -25.0625 C 0.375 -25.519531 0.476562 -25.863281 0.6875 -26.09375 C 0.90625 -26.332031 1.171875 -26.5 1.484375 -26.59375 C 1.804688 -26.6875 2.117188 -26.734375 2.421875 -26.734375 C 2.734375 -26.742188 2.992188 -26.75 3.203125 -26.75 L 6.3125 -26.75 C 6.539062 -26.75 6.835938 -26.742188 7.203125 -26.734375 C 7.566406 -26.722656 7.921875 -26.648438 8.265625 -26.515625 C 8.609375 -26.378906 8.859375 -26.128906 9.015625 -25.765625 L 9.015625 -25.78125 L 15.34375 -13.734375 C 15.332031 -15.003906 15.285156 -16.097656 15.203125 -17.015625 C 15.117188 -17.941406 15.007812 -18.738281 14.875 -19.40625 C 14.75 -20.082031 14.613281 -20.664062 14.46875 -21.15625 C 14.332031 -21.644531 14.203125 -22.09375 14.078125 -22.5 C 13.953125 -22.90625 13.847656 -23.304688 13.765625 -23.703125 C 13.691406 -24.109375 13.65625 -24.5625 13.65625 -25.0625 C 13.65625 -25.519531 13.765625 -25.863281 13.984375 -26.09375 C 14.203125 -26.332031 14.46875 -26.5 14.78125 -26.59375 C 15.09375 -26.6875 15.40625 -26.734375 15.71875 -26.734375 C 16.03125 -26.742188 16.285156 -26.75 16.484375 -26.75 L 19.625 -26.75 C 19.820312 -26.75 20.070312 -26.742188 20.375 -26.734375 C 20.6875 -26.734375 21 -26.6875 21.3125 -26.59375 C 21.632812 -26.5 21.898438 -26.332031 22.109375 -26.09375 C 22.328125 -25.863281 22.4375 -25.519531 22.4375 -25.0625 C 22.4375 -24.5625 22.394531 -24.101562 22.3125 -23.6875 C 22.238281 -23.28125 22.132812 -22.867188 22 -22.453125 C 21.875 -22.046875 21.738281 -21.585938 21.59375 -21.078125 C 21.457031 -20.578125 21.320312 -19.976562 21.1875 -19.28125 C 21.0625 -18.59375 20.957031 -17.765625 20.875 -16.796875 C 20.789062 -15.835938 20.75 -14.695312 20.75 -13.375 C 20.75 -12.050781 20.789062 -10.910156 20.875 -9.953125 C 20.957031 -8.992188 21.0625 -8.164062 21.1875 -7.46875 C 21.320312 -6.769531 21.457031 -6.164062 21.59375 -5.65625 C 21.738281 -5.15625 21.875 -4.695312 22 -4.28125 C 22.132812 -3.875 22.238281 -3.46875 22.3125 -3.0625 C 22.394531 -2.65625 22.4375 -2.195312 22.4375 -1.6875 C 22.4375 -1.226562 22.328125 -0.878906 22.109375 -0.640625 C 21.898438 -0.410156 21.632812 -0.25 21.3125 -0.15625 C 21 -0.0625 20.6875 -0.0078125 20.375 0 C 20.070312 0 19.820312 0 19.625 0 L 16.484375 0 C 16.316406 0 16.101562 0 15.84375 0 C 15.582031 -0.0078125 15.3125 -0.0390625 15.03125 -0.09375 C 14.757812 -0.144531 14.507812 -0.242188 14.28125 -0.390625 C 14.050781 -0.535156 13.878906 -0.742188 13.765625 -1.015625 L 7.453125 -13 C 7.460938 -11.738281 7.503906 -10.644531 7.578125 -9.71875 C 7.660156 -8.800781 7.765625 -8.003906 7.890625 -7.328125 C 8.023438 -6.660156 8.164062 -6.078125 8.3125 -5.578125 C 8.457031 -5.085938 8.59375 -4.640625 8.71875 -4.234375 C 8.84375 -3.835938 8.941406 -3.4375 9.015625 -3.03125 C 9.097656 -2.632812 9.140625 -2.1875 9.140625 -1.6875 C 9.140625 -1.226562 9.03125 -0.878906 8.8125 -0.640625 C 8.59375 -0.410156 8.328125 -0.25 8.015625 -0.15625 C 7.703125 -0.0625 7.390625 -0.0078125 7.078125 0 C 6.765625 0 6.507812 0 6.3125 0 L 3.203125 0 C 2.992188 0 2.734375 0 2.421875 0 C 2.117188 -0.0078125 1.804688 -0.0625 1.484375 -0.15625 C 1.171875 -0.25 0.90625 -0.410156 0.6875 -0.640625 C 0.476562 -0.878906 0.375 -1.226562 0.375 -1.6875 C 0.375 -2.195312 0.410156 -2.65625 0.484375 -3.0625 C 0.566406 -3.46875 0.671875 -3.875 0.796875 -4.28125 C 0.929688 -4.695312 1.070312 -5.15625 1.21875 -5.65625 C 1.363281 -6.164062 1.5 -6.769531 1.625 -7.46875 C 1.757812 -8.164062 1.863281 -8.992188 1.9375 -9.953125 C 2.019531 -10.910156 2.0625 -12.050781 2.0625 -13.375 Z M 2.0625 -13.375 "/></g></g></g><g fill="#014871" fill-opacity="1"><g transform="translate(133.372177, 83.999997)"><g><path d="M 2.0625 -13.75 C 2.0625 -15.039062 2.019531 -16.148438 1.9375 -17.078125 C 1.863281 -18.015625 1.757812 -18.816406 1.625 -19.484375 C 1.5 -20.148438 1.363281 -20.734375 1.21875 -21.234375 C 1.070312 -21.734375 0.929688 -22.179688 0.796875 -22.578125 C 0.671875 -22.984375 0.566406 -23.382812 0.484375 -23.78125 C 0.410156 -24.175781 0.375 -24.613281 0.375 -25.09375 C 0.375 -25.539062 0.476562 -25.878906 0.6875 -26.109375 C 0.90625 -26.335938 1.171875 -26.5 1.484375 -26.59375 C 1.804688 -26.6875 2.117188 -26.734375 2.421875 -26.734375 C 2.734375 -26.742188 2.992188 -26.75 3.203125 -26.75 L 18.1875 -26.75 C 18.726562 -26.75 19.171875 -26.578125 19.515625 -26.234375 C 19.859375 -25.898438 20.03125 -25.457031 20.03125 -24.90625 L 20.03125 -19.59375 C 20.03125 -19.269531 20.007812 -18.941406 19.96875 -18.609375 C 19.9375 -18.273438 19.828125 -18 19.640625 -17.78125 C 19.453125 -17.570312 19.140625 -17.46875 18.703125 -17.46875 C 18.265625 -17.46875 17.828125 -17.601562 17.390625 -17.875 C 16.960938 -18.15625 16.515625 -18.5 16.046875 -18.90625 C 15.585938 -19.320312 15.078125 -19.726562 14.515625 -20.125 C 13.953125 -20.53125 13.320312 -20.867188 12.625 -21.140625 C 11.925781 -21.421875 11.125 -21.5625 10.21875 -21.5625 C 9.875 -21.5625 9.625 -21.453125 9.46875 -21.234375 C 9.3125 -21.023438 9.210938 -20.726562 9.171875 -20.34375 C 9.140625 -19.957031 9.125 -19.507812 9.125 -19 C 9.125 -18.320312 9.175781 -17.765625 9.28125 -17.328125 C 9.394531 -16.898438 9.628906 -16.59375 9.984375 -16.40625 C 10.347656 -16.21875 10.894531 -16.144531 11.625 -16.1875 C 12.1875 -16.21875 12.664062 -16.273438 13.0625 -16.359375 C 13.46875 -16.441406 13.84375 -16.519531 14.1875 -16.59375 C 14.539062 -16.664062 14.910156 -16.703125 15.296875 -16.703125 C 15.785156 -16.703125 16.128906 -16.539062 16.328125 -16.21875 C 16.523438 -15.894531 16.625 -15.554688 16.625 -15.203125 L 16.625 -11.46875 C 16.625 -11.113281 16.523438 -10.769531 16.328125 -10.4375 C 16.128906 -10.113281 15.785156 -9.953125 15.296875 -9.953125 C 14.910156 -9.953125 14.539062 -9.988281 14.1875 -10.0625 C 13.84375 -10.144531 13.46875 -10.226562 13.0625 -10.3125 C 12.664062 -10.394531 12.1875 -10.453125 11.625 -10.484375 C 10.925781 -10.515625 10.394531 -10.441406 10.03125 -10.265625 C 9.675781 -10.085938 9.4375 -9.789062 9.3125 -9.375 C 9.1875 -8.96875 9.125 -8.425781 9.125 -7.75 C 9.125 -7.25 9.140625 -6.800781 9.171875 -6.40625 C 9.210938 -6.019531 9.3125 -5.71875 9.46875 -5.5 C 9.625 -5.289062 9.875 -5.1875 10.21875 -5.1875 C 11.125 -5.1875 11.925781 -5.320312 12.625 -5.59375 C 13.320312 -5.875 13.953125 -6.21875 14.515625 -6.625 C 15.078125 -7.039062 15.585938 -7.445312 16.046875 -7.84375 C 16.515625 -8.25 16.960938 -8.585938 17.390625 -8.859375 C 17.828125 -9.140625 18.265625 -9.28125 18.703125 -9.28125 C 19.140625 -9.28125 19.453125 -9.171875 19.640625 -8.953125 C 19.828125 -8.742188 19.9375 -8.472656 19.96875 -8.140625 C 20.007812 -7.816406 20.03125 -7.488281 20.03125 -7.15625 L 20.03125 -1.84375 C 20.03125 -1.289062 19.859375 -0.84375 19.515625 -0.5 C 19.171875 -0.164062 18.726562 0 18.1875 0 L 2.890625 0 C 2.691406 0 2.453125 0 2.171875 0 C 1.898438 -0.0078125 1.625 -0.0625 1.34375 -0.15625 C 1.0625 -0.25 0.828125 -0.410156 0.640625 -0.640625 C 0.460938 -0.867188 0.375 -1.207031 0.375 -1.65625 C 0.375 -2.28125 0.425781 -2.859375 0.53125 -3.390625 C 0.644531 -3.921875 0.785156 -4.472656 0.953125 -5.046875 C 1.117188 -5.617188 1.289062 -6.285156 1.46875 -7.046875 C 1.644531 -7.804688 1.785156 -8.722656 1.890625 -9.796875 C 2.003906 -10.878906 2.0625 -12.195312 2.0625 -13.75 Z M 2.0625 -13.75 "/></g></g></g><g fill="#014871" fill-opacity="1"><g transform="translate(154.844428, 83.999997)"><g><path d="M -0.1875 -5.984375 C -0.1875 -6.867188 -0.00390625 -7.644531 0.359375 -8.3125 C 0.734375 -8.976562 1.210938 -9.5 1.796875 -9.875 C 2.390625 -10.25 3.007812 -10.441406 3.65625 -10.453125 C 4.175781 -10.472656 4.660156 -10.363281 5.109375 -10.125 C 5.566406 -9.882812 6.003906 -9.570312 6.421875 -9.1875 C 6.835938 -8.8125 7.242188 -8.398438 7.640625 -7.953125 C 8.046875 -7.515625 8.445312 -7.097656 8.84375 -6.703125 C 9.25 -6.316406 9.664062 -6 10.09375 -5.75 C 10.519531 -5.507812 10.96875 -5.390625 11.4375 -5.390625 C 12.050781 -5.390625 12.488281 -5.539062 12.75 -5.84375 C 13.007812 -6.15625 13.140625 -6.539062 13.140625 -7 C 13.140625 -7.519531 12.957031 -7.957031 12.59375 -8.3125 C 12.238281 -8.675781 11.753906 -8.988281 11.140625 -9.25 C 10.523438 -9.519531 9.832031 -9.78125 9.0625 -10.03125 C 8.300781 -10.28125 7.515625 -10.550781 6.703125 -10.84375 C 5.890625 -11.132812 5.097656 -11.484375 4.328125 -11.890625 C 3.554688 -12.304688 2.863281 -12.8125 2.25 -13.40625 C 1.644531 -14.007812 1.160156 -14.726562 0.796875 -15.5625 C 0.441406 -16.40625 0.265625 -17.414062 0.265625 -18.59375 C 0.265625 -20.3125 0.691406 -21.800781 1.546875 -23.0625 C 2.398438 -24.320312 3.632812 -25.296875 5.25 -25.984375 C 6.863281 -26.679688 8.8125 -27.03125 11.09375 -27.03125 C 12.144531 -27.03125 13.179688 -26.925781 14.203125 -26.71875 C 15.234375 -26.507812 16.171875 -26.175781 17.015625 -25.71875 C 17.867188 -25.257812 18.550781 -24.671875 19.0625 -23.953125 C 19.570312 -23.242188 19.828125 -22.390625 19.828125 -21.390625 C 19.828125 -20.671875 19.664062 -20.015625 19.34375 -19.421875 C 19.03125 -18.835938 18.601562 -18.359375 18.0625 -17.984375 C 17.53125 -17.617188 16.921875 -17.414062 16.234375 -17.375 C 15.648438 -17.332031 15.101562 -17.4375 14.59375 -17.6875 C 14.09375 -17.945312 13.613281 -18.28125 13.15625 -18.6875 C 12.695312 -19.09375 12.238281 -19.5 11.78125 -19.90625 C 11.332031 -20.320312 10.867188 -20.671875 10.390625 -20.953125 C 9.910156 -21.242188 9.40625 -21.390625 8.875 -21.390625 C 8.4375 -21.390625 8.085938 -21.304688 7.828125 -21.140625 C 7.566406 -20.984375 7.378906 -20.785156 7.265625 -20.546875 C 7.160156 -20.304688 7.109375 -20.082031 7.109375 -19.875 C 7.109375 -19.363281 7.296875 -18.929688 7.671875 -18.578125 C 8.054688 -18.234375 8.5625 -17.921875 9.1875 -17.640625 C 9.820312 -17.367188 10.535156 -17.101562 11.328125 -16.84375 C 12.117188 -16.582031 12.9375 -16.296875 13.78125 -15.984375 C 14.625 -15.679688 15.441406 -15.3125 16.234375 -14.875 C 17.023438 -14.4375 17.738281 -13.90625 18.375 -13.28125 C 19.007812 -12.664062 19.515625 -11.921875 19.890625 -11.046875 C 20.265625 -10.171875 20.453125 -9.132812 20.453125 -7.9375 C 20.453125 -6.65625 20.242188 -5.550781 19.828125 -4.625 C 19.410156 -3.695312 18.847656 -2.914062 18.140625 -2.28125 C 17.441406 -1.65625 16.65625 -1.148438 15.78125 -0.765625 C 14.914062 -0.390625 14.019531 -0.125 13.09375 0.03125 C 12.164062 0.195312 11.28125 0.28125 10.4375 0.28125 C 9.457031 0.28125 8.46875 0.21875 7.46875 0.09375 C 6.46875 -0.03125 5.507812 -0.238281 4.59375 -0.53125 C 3.675781 -0.820312 2.859375 -1.203125 2.140625 -1.671875 C 1.421875 -2.148438 0.851562 -2.742188 0.4375 -3.453125 C 0.0195312 -4.171875 -0.1875 -5.015625 -0.1875 -5.984375 Z M -0.1875 -5.984375 "/></g></g></g><g fill="#014871" fill-opacity="1"><g transform="translate(176.000913, 83.999997)"><g><path d="M -0.1875 -5.984375 C -0.1875 -6.867188 -0.00390625 -7.644531 0.359375 -8.3125 C 0.734375 -8.976562 1.210938 -9.5 1.796875 -9.875 C 2.390625 -10.25 3.007812 -10.441406 3.65625 -10.453125 C 4.175781 -10.472656 4.660156 -10.363281 5.109375 -10.125 C 5.566406 -9.882812 6.003906 -9.570312 6.421875 -9.1875 C 6.835938 -8.8125 7.242188 -8.398438 7.640625 -7.953125 C 8.046875 -7.515625 8.445312 -7.097656 8.84375 -6.703125 C 9.25 -6.316406 9.664062 -6 10.09375 -5.75 C 10.519531 -5.507812 10.96875 -5.390625 11.4375 -5.390625 C 12.050781 -5.390625 12.488281 -5.539062 12.75 -5.84375 C 13.007812 -6.15625 13.140625 -6.539062 13.140625 -7 C 13.140625 -7.519531 12.957031 -7.957031 12.59375 -8.3125 C 12.238281 -8.675781 11.753906 -8.988281 11.140625 -9.25 C 10.523438 -9.519531 9.832031 -9.78125 9.0625 -10.03125 C 8.300781 -10.28125 7.515625 -10.550781 6.703125 -10.84375 C 5.890625 -11.132812 5.097656 -11.484375 4.328125 -11.890625 C 3.554688 -12.304688 2.863281 -12.8125 2.25 -13.40625 C 1.644531 -14.007812 1.160156 -14.726562 0.796875 -15.5625 C 0.441406 -16.40625 0.265625 -17.414062 0.265625 -18.59375 C 0.265625 -20.3125 0.691406 -21.800781 1.546875 -23.0625 C 2.398438 -24.320312 3.632812 -25.296875 5.25 -25.984375 C 6.863281 -26.679688 8.8125 -27.03125 11.09375 -27.03125 C 12.144531 -27.03125 13.179688 -26.925781 14.203125 -26.71875 C 15.234375 -26.507812 16.171875 -26.175781 17.015625 -25.71875 C 17.867188 -25.257812 18.550781 -24.671875 19.0625 -23.953125 C 19.570312 -23.242188 19.828125 -22.390625 19.828125 -21.390625 C 19.828125 -20.671875 19.664062 -20.015625 19.34375 -19.421875 C 19.03125 -18.835938 18.601562 -18.359375 18.0625 -17.984375 C 17.53125 -17.617188 16.921875 -17.414062 16.234375 -17.375 C 15.648438 -17.332031 15.101562 -17.4375 14.59375 -17.6875 C 14.09375 -17.945312 13.613281 -18.28125 13.15625 -18.6875 C 12.695312 -19.09375 12.238281 -19.5 11.78125 -19.90625 C 11.332031 -20.320312 10.867188 -20.671875 10.390625 -20.953125 C 9.910156 -21.242188 9.40625 -21.390625 8.875 -21.390625 C 8.4375 -21.390625 8.085938 -21.304688 7.828125 -21.140625 C 7.566406 -20.984375 7.378906 -20.785156 7.265625 -20.546875 C 7.160156 -20.304688 7.109375 -20.082031 7.109375 -19.875 C 7.109375 -19.363281 7.296875 -18.929688 7.671875 -18.578125 C 8.054688 -18.234375 8.5625 -17.921875 9.1875 -17.640625 C 9.820312 -17.367188 10.535156 -17.101562 11.328125 -16.84375 C 12.117188 -16.582031 12.9375 -16.296875 13.78125 -15.984375 C 14.625 -15.679688 15.441406 -15.3125 16.234375 -14.875 C 17.023438 -14.4375 17.738281 -13.90625 18.375 -13.28125 C 19.007812 -12.664062 19.515625 -11.921875 19.890625 -11.046875 C 20.265625 -10.171875 20.453125 -9.132812 20.453125 -7.9375 C 20.453125 -6.65625 20.242188 -5.550781 19.828125 -4.625 C 19.410156 -3.695312 18.847656 -2.914062 18.140625 -2.28125 C 17.441406 -1.65625 16.65625 -1.148438 15.78125 -0.765625 C 14.914062 -0.390625 14.019531 -0.125 13.09375 0.03125 C 12.164062 0.195312 11.28125 0.28125 10.4375 0.28125 C 9.457031 0.28125 8.46875 0.21875 7.46875 0.09375 C 6.46875 -0.03125 5.507812 -0.238281 4.59375 -0.53125 C 3.675781 -0.820312 2.859375 -1.203125 2.140625 -1.671875 C 1.421875 -2.148438 0.851562 -2.742188 0.4375 -3.453125 C 0.0195312 -4.171875 -0.1875 -5.015625 -0.1875 -5.984375 Z M -0.1875 -5.984375 "/></g></g></g><g fill="#014871" fill-opacity="1"><g transform="translate(205.107563, 83.999997)"><g><path d="M 11.09375 0.28125 C 9.34375 0.28125 7.832031 0.0507812 6.5625 -0.40625 C 5.289062 -0.863281 4.222656 -1.515625 3.359375 -2.359375 C 2.492188 -3.203125 1.800781 -4.1875 1.28125 -5.3125 C 0.757812 -6.445312 0.382812 -7.695312 0.15625 -9.0625 C -0.0703125 -10.4375 -0.1875 -11.875 -0.1875 -13.375 C -0.1875 -14.875 -0.0703125 -16.304688 0.15625 -17.671875 C 0.382812 -19.046875 0.757812 -20.296875 1.28125 -21.421875 C 1.800781 -22.554688 2.492188 -23.546875 3.359375 -24.390625 C 4.222656 -25.234375 5.289062 -25.882812 6.5625 -26.34375 C 7.832031 -26.800781 9.34375 -27.03125 11.09375 -27.03125 C 12.820312 -27.03125 14.273438 -26.820312 15.453125 -26.40625 C 16.640625 -25.988281 17.585938 -25.441406 18.296875 -24.765625 C 19.003906 -24.085938 19.515625 -23.34375 19.828125 -22.53125 C 20.148438 -21.726562 20.3125 -20.9375 20.3125 -20.15625 C 20.3125 -19.476562 20.175781 -18.851562 19.90625 -18.28125 C 19.632812 -17.71875 19.28125 -17.234375 18.84375 -16.828125 C 18.414062 -16.421875 17.9375 -16.101562 17.40625 -15.875 C 16.875 -15.65625 16.347656 -15.546875 15.828125 -15.546875 C 15.160156 -15.546875 14.582031 -15.769531 14.09375 -16.21875 C 13.601562 -16.664062 13.359375 -17.378906 13.359375 -18.359375 C 13.359375 -19.078125 13.296875 -19.65625 13.171875 -20.09375 C 13.054688 -20.539062 12.835938 -20.867188 12.515625 -21.078125 C 12.191406 -21.285156 11.71875 -21.390625 11.09375 -21.390625 C 10.3125 -21.390625 9.660156 -21.179688 9.140625 -20.765625 C 8.628906 -20.347656 8.222656 -19.769531 7.921875 -19.03125 C 7.628906 -18.289062 7.414062 -17.4375 7.28125 -16.46875 C 7.15625 -15.507812 7.09375 -14.476562 7.09375 -13.375 C 7.09375 -12.269531 7.15625 -11.234375 7.28125 -10.265625 C 7.414062 -9.304688 7.628906 -8.457031 7.921875 -7.71875 C 8.222656 -6.976562 8.628906 -6.398438 9.140625 -5.984375 C 9.660156 -5.578125 10.3125 -5.375 11.09375 -5.375 C 11.71875 -5.375 12.191406 -5.472656 12.515625 -5.671875 C 12.835938 -5.878906 13.054688 -6.203125 13.171875 -6.640625 C 13.296875 -7.085938 13.359375 -7.671875 13.359375 -8.390625 C 13.359375 -9.390625 13.601562 -10.109375 14.09375 -10.546875 C 14.582031 -10.984375 15.160156 -11.203125 15.828125 -11.203125 C 16.347656 -11.203125 16.875 -11.085938 17.40625 -10.859375 C 17.9375 -10.640625 18.414062 -10.328125 18.84375 -9.921875 C 19.28125 -9.515625 19.632812 -9.023438 19.90625 -8.453125 C 20.175781 -7.890625 20.3125 -7.269531 20.3125 -6.59375 C 20.3125 -5.8125 20.148438 -5.019531 19.828125 -4.21875 C 19.515625 -3.414062 19.003906 -2.671875 18.296875 -1.984375 C 17.585938 -1.304688 16.640625 -0.757812 15.453125 -0.34375 C 14.273438 0.0703125 12.820312 0.28125 11.09375 0.28125 Z M 11.09375 0.28125 "/></g></g></g><g fill="#014871" fill-opacity="1"><g transform="translate(226.858432, 83.999997)"><g><path d="M 0.375 -25.09375 C 0.375 -25.539062 0.476562 -25.878906 0.6875 -26.109375 C 0.90625 -26.335938 1.171875 -26.5 1.484375 -26.59375 C 1.804688 -26.6875 2.117188 -26.734375 2.421875 -26.734375 C 2.734375 -26.742188 2.992188 -26.75 3.203125 -26.75 L 7.984375 -26.75 C 8.179688 -26.75 8.4375 -26.742188 8.75 -26.734375 C 9.0625 -26.734375 9.375 -26.6875 9.6875 -26.59375 C 10 -26.5 10.265625 -26.335938 10.484375 -26.109375 C 10.703125 -25.878906 10.8125 -25.539062 10.8125 -25.09375 C 10.8125 -24.613281 10.769531 -24.175781 10.6875 -23.78125 C 10.613281 -23.382812 10.507812 -22.984375 10.375 -22.578125 C 10.25 -22.179688 10.113281 -21.734375 9.96875 -21.234375 C 9.820312 -20.734375 9.679688 -20.148438 9.546875 -19.484375 C 9.421875 -18.816406 9.316406 -18.015625 9.234375 -17.078125 C 9.160156 -16.148438 9.125 -15.039062 9.125 -13.75 L 9.125 -7.75 C 9.125 -7.25 9.140625 -6.800781 9.171875 -6.40625 C 9.210938 -6.019531 9.3125 -5.71875 9.46875 -5.5 C 9.625 -5.289062 9.875 -5.1875 10.21875 -5.1875 C 11.125 -5.1875 11.925781 -5.320312 12.625 -5.59375 C 13.320312 -5.875 13.953125 -6.21875 14.515625 -6.625 C 15.078125 -7.039062 15.585938 -7.445312 16.046875 -7.84375 C 16.515625 -8.25 16.960938 -8.585938 17.390625 -8.859375 C 17.828125 -9.140625 18.265625 -9.28125 18.703125 -9.28125 C 19.148438 -9.28125 19.46875 -9.164062 19.65625 -8.9375 C 19.84375 -8.71875 19.953125 -8.441406 19.984375 -8.109375 C 20.015625 -7.773438 20.03125 -7.457031 20.03125 -7.15625 L 20.03125 -1.84375 C 20.03125 -1.289062 19.859375 -0.84375 19.515625 -0.5 C 19.171875 -0.164062 18.726562 0 18.1875 0 L 2.890625 0 C 2.691406 0 2.453125 0 2.171875 0 C 1.898438 -0.0078125 1.625 -0.0625 1.34375 -0.15625 C 1.0625 -0.25 0.828125 -0.410156 0.640625 -0.640625 C 0.460938 -0.867188 0.375 -1.207031 0.375 -1.65625 C 0.375 -2.28125 0.425781 -2.859375 0.53125 -3.390625 C 0.644531 -3.921875 0.785156 -4.472656 0.953125 -5.046875 C 1.117188 -5.617188 1.289062 -6.285156 1.46875 -7.046875 C 1.644531 -7.804688 1.785156 -8.722656 1.890625 -9.796875 C 2.003906 -10.878906 2.0625 -12.195312 2.0625 -13.75 C 2.0625 -15.039062 2.019531 -16.148438 1.9375 -17.078125 C 1.863281 -18.015625 1.757812 -18.816406 1.625 -19.484375 C 1.5 -20.148438 1.363281 -20.734375 1.21875 -21.234375 C 1.070312 -21.734375 0.929688 -22.179688 0.796875 -22.578125 C 0.671875 -22.984375 0.566406 -23.382812 0.484375 -23.78125 C 0.410156 -24.175781 0.375 -24.613281 0.375 -25.09375 Z M 0.375 -25.09375 "/></g></g></g><g fill="#014871" fill-opacity="1"><g transform="translate(248.330682, 83.999997)"><g><path d="M 0.375 -25.0625 C 0.375 -25.519531 0.476562 -25.863281 0.6875 -26.09375 C 0.90625 -26.332031 1.171875 -26.5 1.484375 -26.59375 C 1.804688 -26.6875 2.117188 -26.734375 2.421875 -26.734375 C 2.734375 -26.742188 2.992188 -26.75 3.203125 -26.75 L 7.984375 -26.75 C 8.179688 -26.75 8.4375 -26.742188 8.75 -26.734375 C 9.0625 -26.734375 9.375 -26.6875 9.6875 -26.59375 C 10 -26.5 10.265625 -26.332031 10.484375 -26.09375 C 10.703125 -25.863281 10.8125 -25.519531 10.8125 -25.0625 C 10.8125 -24.5625 10.769531 -24.101562 10.6875 -23.6875 C 10.613281 -23.28125 10.507812 -22.867188 10.375 -22.453125 C 10.25 -22.046875 10.113281 -21.585938 9.96875 -21.078125 C 9.820312 -20.578125 9.679688 -19.976562 9.546875 -19.28125 C 9.421875 -18.59375 9.316406 -17.765625 9.234375 -16.796875 C 9.160156 -15.835938 9.125 -14.695312 9.125 -13.375 C 9.125 -13.175781 9.113281 -12.84375 9.09375 -12.375 C 9.070312 -11.90625 9.0625 -11.367188 9.0625 -10.765625 C 9.070312 -10.160156 9.113281 -9.546875 9.1875 -8.921875 C 9.269531 -8.296875 9.40625 -7.710938 9.59375 -7.171875 C 9.789062 -6.640625 10.0625 -6.207031 10.40625 -5.875 C 10.75 -5.550781 11.191406 -5.390625 11.734375 -5.390625 C 12.296875 -5.390625 12.742188 -5.550781 13.078125 -5.875 C 13.421875 -6.207031 13.6875 -6.640625 13.875 -7.171875 C 14.070312 -7.710938 14.207031 -8.296875 14.28125 -8.921875 C 14.351562 -9.546875 14.394531 -10.160156 14.40625 -10.765625 C 14.414062 -11.367188 14.410156 -11.90625 14.390625 -12.375 C 14.367188 -12.84375 14.359375 -13.175781 14.359375 -13.375 C 14.359375 -14.695312 14.316406 -15.835938 14.234375 -16.796875 C 14.160156 -17.765625 14.054688 -18.59375 13.921875 -19.28125 C 13.796875 -19.976562 13.660156 -20.578125 13.515625 -21.078125 C 13.367188 -21.585938 13.226562 -22.046875 13.09375 -22.453125 C 12.96875 -22.867188 12.863281 -23.28125 12.78125 -23.6875 C 12.707031 -24.101562 12.671875 -24.5625 12.671875 -25.0625 C 12.671875 -25.519531 12.78125 -25.863281 13 -26.09375 C 13.21875 -26.332031 13.484375 -26.5 13.796875 -26.59375 C 14.109375 -26.6875 14.421875 -26.734375 14.734375 -26.734375 C 15.046875 -26.742188 15.300781 -26.75 15.5 -26.75 L 20.28125 -26.75 C 20.476562 -26.75 20.734375 -26.742188 21.046875 -26.734375 C 21.359375 -26.734375 21.671875 -26.6875 21.984375 -26.59375 C 22.296875 -26.5 22.5625 -26.332031 22.78125 -26.09375 C 23 -25.863281 23.109375 -25.519531 23.109375 -25.0625 C 23.109375 -24.5625 23.066406 -24.101562 22.984375 -23.6875 C 22.910156 -23.28125 22.804688 -22.867188 22.671875 -22.453125 C 22.546875 -22.046875 22.410156 -21.585938 22.265625 -21.078125 C 22.117188 -20.578125 21.976562 -19.976562 21.84375 -19.28125 C 21.71875 -18.59375 21.613281 -17.765625 21.53125 -16.796875 C 21.457031 -15.835938 21.421875 -14.695312 21.421875 -13.375 C 21.421875 -12.695312 21.421875 -12.003906 21.421875 -11.296875 C 21.429688 -10.597656 21.4375 -9.925781 21.4375 -9.28125 C 21.4375 -7.96875 21.28125 -6.734375 20.96875 -5.578125 C 20.664062 -4.421875 20.144531 -3.398438 19.40625 -2.515625 C 18.675781 -1.640625 17.6875 -0.953125 16.4375 -0.453125 C 15.1875 0.0351562 13.617188 0.28125 11.734375 0.28125 C 9.859375 0.28125 8.296875 0.0351562 7.046875 -0.453125 C 5.796875 -0.953125 4.800781 -1.640625 4.0625 -2.515625 C 3.332031 -3.398438 2.8125 -4.421875 2.5 -5.578125 C 2.195312 -6.734375 2.046875 -7.96875 2.046875 -9.28125 C 2.046875 -9.925781 2.046875 -10.597656 2.046875 -11.296875 C 2.054688 -12.003906 2.0625 -12.695312 2.0625 -13.375 C 2.0625 -14.695312 2.019531 -15.835938 1.9375 -16.796875 C 1.863281 -17.765625 1.757812 -18.59375 1.625 -19.28125 C 1.5 -19.976562 1.363281 -20.578125 1.21875 -21.078125 C 1.070312 -21.585938 0.929688 -22.046875 0.796875 -22.453125 C 0.671875 -22.867188 0.566406 -23.28125 0.484375 -23.6875 C 0.410156 -24.101562 0.375 -24.5625 0.375 -25.0625 Z M 0.375 -25.0625 "/></g></g></g><g fill="#014871" fill-opacity="1"><g transform="translate(272.700532, 83.999997)"><g><path d="M 0.375 -1.65625 C 0.375 -2.28125 0.425781 -2.859375 0.53125 -3.390625 C 0.644531 -3.921875 0.785156 -4.472656 0.953125 -5.046875 C 1.117188 -5.617188 1.289062 -6.285156 1.46875 -7.046875 C 1.644531 -7.804688 1.785156 -8.722656 1.890625 -9.796875 C 2.003906 -10.878906 2.0625 -12.195312 2.0625 -13.75 C 2.0625 -15.039062 2.019531 -16.148438 1.9375 -17.078125 C 1.863281 -18.015625 1.757812 -18.816406 1.625 -19.484375 C 1.5 -20.148438 1.363281 -20.734375 1.21875 -21.234375 C 1.070312 -21.734375 0.929688 -22.179688 0.796875 -22.578125 C 0.671875 -22.984375 0.566406 -23.382812 0.484375 -23.78125 C 0.410156 -24.175781 0.375 -24.613281 0.375 -25.09375 C 0.375 -25.539062 0.476562 -25.878906 0.6875 -26.109375 C 0.90625 -26.335938 1.171875 -26.5 1.484375 -26.59375 C 1.804688 -26.6875 2.117188 -26.734375 2.421875 -26.734375 C 2.734375 -26.742188 2.992188 -26.75 3.203125 -26.75 L 13.765625 -26.75 C 15.046875 -26.75 16.175781 -26.488281 17.15625 -25.96875 C 18.144531 -25.457031 18.921875 -24.738281 19.484375 -23.8125 C 20.046875 -22.882812 20.328125 -21.800781 20.328125 -20.5625 C 20.328125 -20.03125 20.253906 -19.484375 20.109375 -18.921875 C 19.960938 -18.367188 19.722656 -17.832031 19.390625 -17.3125 C 19.066406 -16.800781 18.632812 -16.34375 18.09375 -15.9375 C 17.5625 -15.539062 16.898438 -15.238281 16.109375 -15.03125 C 15.796875 -14.945312 15.640625 -14.828125 15.640625 -14.671875 C 15.640625 -14.578125 15.765625 -14.472656 16.015625 -14.359375 C 16.265625 -14.242188 16.578125 -14.101562 16.953125 -13.9375 C 17.335938 -13.769531 17.75 -13.535156 18.1875 -13.234375 C 18.632812 -12.929688 19.050781 -12.535156 19.4375 -12.046875 C 19.820312 -11.566406 20.132812 -10.960938 20.375 -10.234375 C 20.625 -9.503906 20.75 -8.613281 20.75 -7.5625 C 20.75 -6.914062 20.660156 -6.242188 20.484375 -5.546875 C 20.304688 -4.847656 20.019531 -4.171875 19.625 -3.515625 C 19.238281 -2.859375 18.722656 -2.257812 18.078125 -1.71875 C 17.429688 -1.1875 16.644531 -0.765625 15.71875 -0.453125 C 14.789062 -0.148438 13.703125 0 12.453125 0 L 2.890625 0 C 2.691406 0 2.453125 0 2.171875 0 C 1.898438 -0.0078125 1.625 -0.0625 1.34375 -0.15625 C 1.0625 -0.25 0.828125 -0.410156 0.640625 -0.640625 C 0.460938 -0.867188 0.375 -1.207031 0.375 -1.65625 Z M 9.078125 -6.71875 C 9.078125 -6.1875 9.175781 -5.832031 9.375 -5.65625 C 9.570312 -5.476562 9.847656 -5.390625 10.203125 -5.390625 C 10.804688 -5.390625 11.300781 -5.503906 11.6875 -5.734375 C 12.070312 -5.972656 12.367188 -6.269531 12.578125 -6.625 C 12.796875 -6.988281 12.945312 -7.363281 13.03125 -7.75 C 13.125 -8.132812 13.171875 -8.472656 13.171875 -8.765625 C 13.171875 -9.066406 13.125 -9.410156 13.03125 -9.796875 C 12.945312 -10.191406 12.796875 -10.566406 12.578125 -10.921875 C 12.367188 -11.285156 12.070312 -11.582031 11.6875 -11.8125 C 11.300781 -12.050781 10.804688 -12.171875 10.203125 -12.171875 C 9.847656 -12.171875 9.570312 -12.082031 9.375 -11.90625 C 9.175781 -11.738281 9.078125 -11.378906 9.078125 -10.828125 C 9.078125 -10.703125 9.082031 -10.5 9.09375 -10.21875 C 9.101562 -9.945312 9.109375 -9.671875 9.109375 -9.390625 C 9.117188 -9.109375 9.125 -8.898438 9.125 -8.765625 C 9.125 -8.640625 9.117188 -8.4375 9.109375 -8.15625 C 9.109375 -7.882812 9.101562 -7.609375 9.09375 -7.328125 C 9.082031 -7.054688 9.078125 -6.851562 9.078125 -6.71875 Z M 9.078125 -17.484375 C 9.078125 -17.097656 9.175781 -16.835938 9.375 -16.703125 C 9.570312 -16.578125 9.847656 -16.515625 10.203125 -16.515625 C 10.804688 -16.515625 11.300781 -16.597656 11.6875 -16.765625 C 12.070312 -16.929688 12.367188 -17.144531 12.578125 -17.40625 C 12.796875 -17.664062 12.945312 -17.929688 13.03125 -18.203125 C 13.125 -18.472656 13.171875 -18.722656 13.171875 -18.953125 C 13.171875 -19.160156 13.125 -19.398438 13.03125 -19.671875 C 12.945312 -19.953125 12.796875 -20.222656 12.578125 -20.484375 C 12.367188 -20.742188 12.070312 -20.957031 11.6875 -21.125 C 11.300781 -21.300781 10.804688 -21.390625 10.203125 -21.390625 C 9.847656 -21.390625 9.570312 -21.320312 9.375 -21.1875 C 9.175781 -21.0625 9.078125 -20.804688 9.078125 -20.421875 Z M 9.078125 -17.484375 "/></g></g></g><g fill="#014871" fill-opacity="1"><g transform="translate(215.884296, 111.373361)"><g><path d="M 3.828125 -4.203125 C 4.304688 -4.867188 4.71875 -5.414062 5.0625 -5.84375 C 5.414062 -6.269531 5.734375 -6.613281 6.015625 -6.875 C 6.296875 -7.132812 6.539062 -7.316406 6.75 -7.421875 C 6.957031 -7.523438 7.175781 -7.578125 7.40625 -7.578125 C 7.914062 -7.578125 8.335938 -7.363281 8.671875 -6.9375 C 9.003906 -6.519531 9.171875 -5.988281 9.171875 -5.34375 C 9.171875 -3.9375 8.273438 -2.554688 6.484375 -1.203125 C 5.835938 -0.703125 5.207031 -0.320312 4.59375 -0.0625 C 3.988281 0.1875 3.4375 0.3125 2.9375 0.3125 C 2.445312 0.3125 2.050781 0.132812 1.75 -0.21875 C 1.457031 -0.582031 1.3125 -1.0625 1.3125 -1.65625 C 1.3125 -1.863281 1.328125 -2.066406 1.359375 -2.265625 C 1.398438 -2.472656 1.472656 -2.695312 1.578125 -2.9375 C 1.691406 -3.1875 1.832031 -3.460938 2 -3.765625 C 2.164062 -4.078125 2.382812 -4.441406 2.65625 -4.859375 L 8.4375 -14.125 C 8.582031 -14.082031 8.703125 -14.050781 8.796875 -14.03125 C 8.890625 -14.007812 9.035156 -14 9.234375 -14 C 9.378906 -14 9.515625 -14.003906 9.640625 -14.015625 C 9.765625 -14.023438 9.914062 -14.050781 10.09375 -14.09375 Z M 7.375 -7.375 C 6.988281 -7.375 6.535156 -7.117188 6.015625 -6.609375 C 5.492188 -6.109375 4.785156 -5.238281 3.890625 -4 C 3.222656 -3.082031 2.75 -2.367188 2.46875 -1.859375 C 2.195312 -1.359375 2.0625 -0.945312 2.0625 -0.625 C 2.0625 -0.132812 2.296875 0.109375 2.765625 0.109375 C 3.191406 0.109375 3.707031 -0.132812 4.3125 -0.625 C 4.925781 -1.125 5.515625 -1.710938 6.078125 -2.390625 C 6.648438 -3.078125 7.132812 -3.789062 7.53125 -4.53125 C 7.9375 -5.28125 8.140625 -5.914062 8.140625 -6.4375 C 8.140625 -6.71875 8.066406 -6.941406 7.921875 -7.109375 C 7.785156 -7.285156 7.601562 -7.375 7.375 -7.375 Z M 7.375 -7.375 "/></g></g></g><g fill="#014871" fill-opacity="1"><g transform="translate(224.770223, 111.373361)"><g><path d="M 3.203125 -3 C 2.785156 -2.3125 2.484375 -1.773438 2.296875 -1.390625 C 2.117188 -1.015625 2.03125 -0.722656 2.03125 -0.515625 C 2.03125 -0.0976562 2.21875 0.109375 2.59375 0.109375 C 3.050781 0.109375 3.691406 -0.363281 4.515625 -1.3125 C 5.347656 -2.269531 6.253906 -3.578125 7.234375 -5.234375 L 8.515625 -7.4375 C 8.671875 -7.394531 8.800781 -7.375 8.90625 -7.375 C 9.007812 -7.375 9.132812 -7.375 9.28125 -7.375 C 9.5 -7.375 9.660156 -7.378906 9.765625 -7.390625 C 9.878906 -7.398438 10.035156 -7.421875 10.234375 -7.453125 C 9.828125 -6.804688 9.476562 -6.242188 9.1875 -5.765625 C 8.894531 -5.296875 8.582031 -4.785156 8.25 -4.234375 C 7.925781 -3.679688 7.554688 -3.023438 7.140625 -2.265625 C 6.722656 -1.515625 6.191406 -0.5625 5.546875 0.59375 C 6.117188 0.3125 6.628906 0.0195312 7.078125 -0.28125 C 7.535156 -0.59375 7.972656 -0.929688 8.390625 -1.296875 C 8.816406 -1.671875 9.238281 -2.09375 9.65625 -2.5625 C 10.070312 -3.03125 10.53125 -3.578125 11.03125 -4.203125 C 11.144531 -4.367188 11.226562 -4.453125 11.28125 -4.453125 C 11.34375 -4.453125 11.375 -4.425781 11.375 -4.375 C 11.375 -4.351562 11.328125 -4.273438 11.234375 -4.140625 C 11.140625 -4.003906 11.015625 -3.84375 10.859375 -3.65625 C 10.703125 -3.46875 10.535156 -3.269531 10.359375 -3.0625 C 10.179688 -2.851562 10.003906 -2.648438 9.828125 -2.453125 C 9.484375 -2.078125 9.164062 -1.75 8.875 -1.46875 C 8.582031 -1.195312 8.269531 -0.929688 7.9375 -0.671875 C 7.613281 -0.410156 7.25 -0.160156 6.84375 0.078125 C 6.4375 0.328125 5.957031 0.609375 5.40625 0.921875 L 4.71875 2.140625 C 4.332031 2.804688 3.984375 3.394531 3.671875 3.90625 C 3.359375 4.425781 3.035156 4.894531 2.703125 5.3125 C 2.367188 5.726562 2.023438 6.117188 1.671875 6.484375 C 1.316406 6.847656 0.921875 7.203125 0.484375 7.546875 C -0.234375 8.140625 -0.9375 8.59375 -1.625 8.90625 C -2.3125 9.21875 -2.921875 9.375 -3.453125 9.375 C -3.835938 9.375 -4.15625 9.253906 -4.40625 9.015625 C -4.664062 8.773438 -4.796875 8.472656 -4.796875 8.109375 C -4.796875 6.242188 -2.644531 4.3125 1.65625 2.3125 C 1.925781 2.175781 2.191406 2.046875 2.453125 1.921875 C 2.722656 1.804688 2.992188 1.691406 3.265625 1.578125 L 3.453125 1.453125 L 5.921875 -2.921875 C 5.421875 -2.253906 5.003906 -1.707031 4.671875 -1.28125 C 4.335938 -0.863281 4.046875 -0.535156 3.796875 -0.296875 C 3.546875 -0.0546875 3.320312 0.101562 3.125 0.1875 C 2.925781 0.269531 2.710938 0.3125 2.484375 0.3125 C 2.109375 0.3125 1.773438 0.148438 1.484375 -0.171875 C 1.203125 -0.492188 1.0625 -0.875 1.0625 -1.3125 C 1.0625 -1.632812 1.125 -1.960938 1.25 -2.296875 C 1.382812 -2.628906 1.65625 -3.128906 2.0625 -3.796875 L 4.203125 -7.4375 C 4.347656 -7.394531 4.472656 -7.375 4.578125 -7.375 C 4.691406 -7.375 4.8125 -7.375 4.9375 -7.375 C 5.113281 -7.375 5.269531 -7.378906 5.40625 -7.390625 C 5.550781 -7.398438 5.726562 -7.421875 5.9375 -7.453125 Z M 3.3125 1.6875 C 3.21875 1.738281 3.132812 1.785156 3.0625 1.828125 C 3 1.867188 2.914062 1.910156 2.8125 1.953125 C 2.707031 2.003906 2.566406 2.070312 2.390625 2.15625 C 2.222656 2.238281 2.007812 2.347656 1.75 2.484375 C -0.332031 3.515625 -1.910156 4.507812 -2.984375 5.46875 C -4.054688 6.4375 -4.59375 7.328125 -4.59375 8.140625 C -4.59375 8.460938 -4.484375 8.71875 -4.265625 8.90625 C -4.046875 9.101562 -3.765625 9.203125 -3.421875 9.203125 C -2.929688 9.203125 -2.445312 9.078125 -1.96875 8.828125 C -1.488281 8.578125 -0.992188 8.164062 -0.484375 7.59375 C 0.0234375 7.03125 0.578125 6.285156 1.171875 5.359375 C 1.765625 4.429688 2.421875 3.300781 3.140625 1.96875 C 3.160156 1.96875 3.1875 1.9375 3.21875 1.875 C 3.25 1.820312 3.28125 1.757812 3.3125 1.6875 Z M 3.3125 1.6875 "/></g></g></g><g fill="#014871" fill-opacity="1"><g transform="translate(231.756257, 111.373361)"><g><path d="M 24.828125 -14.453125 C 25.046875 -13.960938 25.195312 -13.503906 25.28125 -13.078125 C 25.363281 -12.660156 25.40625 -12.1875 25.40625 -11.65625 C 25.40625 -10.875 25.296875 -10.085938 25.078125 -9.296875 C 24.859375 -8.503906 24.535156 -7.71875 24.109375 -6.9375 C 23.691406 -6.15625 23.175781 -5.398438 22.5625 -4.671875 C 21.957031 -3.941406 21.273438 -3.25 20.515625 -2.59375 C 19.222656 -1.476562 17.894531 -0.613281 16.53125 0 C 15.164062 0.613281 13.882812 0.921875 12.6875 0.921875 C 11.851562 0.921875 11.085938 0.753906 10.390625 0.421875 C 9.691406 0.0976562 9.09375 -0.34375 8.59375 -0.90625 C 8.101562 -1.476562 7.710938 -2.164062 7.421875 -2.96875 C 7.140625 -3.769531 7 -4.644531 7 -5.59375 C 7 -6.414062 7.113281 -7.253906 7.34375 -8.109375 C 7.570312 -8.972656 7.90625 -9.816406 8.34375 -10.640625 C 8.78125 -11.472656 9.304688 -12.273438 9.921875 -13.046875 C 10.546875 -13.816406 11.25 -14.535156 12.03125 -15.203125 C 12.695312 -15.773438 13.414062 -16.296875 14.1875 -16.765625 C 14.957031 -17.242188 15.742188 -17.65625 16.546875 -18 C 17.347656 -18.34375 18.132812 -18.609375 18.90625 -18.796875 C 19.675781 -18.992188 20.382812 -19.09375 21.03125 -19.09375 C 22.226562 -19.09375 23.179688 -18.78125 23.890625 -18.15625 C 24.597656 -17.539062 24.953125 -16.707031 24.953125 -15.65625 C 24.953125 -15.300781 24.910156 -14.898438 24.828125 -14.453125 Z M 17.75 -12.953125 C 17.664062 -12.953125 17.625 -12.976562 17.625 -13.03125 C 17.625 -13.144531 17.78125 -13.203125 18.09375 -13.203125 C 18.664062 -13.203125 19.128906 -12.957031 19.484375 -12.46875 C 19.847656 -11.988281 20.03125 -11.367188 20.03125 -10.609375 C 20.03125 -9.671875 19.828125 -8.734375 19.421875 -7.796875 C 19.023438 -6.867188 18.507812 -6.03125 17.875 -5.28125 C 17.238281 -4.539062 16.523438 -3.9375 15.734375 -3.46875 C 14.941406 -3 14.144531 -2.765625 13.34375 -2.765625 C 12.46875 -2.765625 11.765625 -3.078125 11.234375 -3.703125 C 10.703125 -4.335938 10.4375 -5.171875 10.4375 -6.203125 C 10.4375 -7.023438 10.578125 -7.859375 10.859375 -8.703125 C 11.140625 -9.546875 11.53125 -10.367188 12.03125 -11.171875 C 12.539062 -11.972656 13.125 -12.726562 13.78125 -13.4375 C 14.445312 -14.15625 15.15625 -14.773438 15.90625 -15.296875 C 16.65625 -15.828125 17.425781 -16.25 18.21875 -16.5625 C 19.007812 -16.875 19.785156 -17.03125 20.546875 -17.03125 C 21.460938 -17.03125 22.28125 -16.832031 23 -16.4375 C 23.726562 -16.050781 24.273438 -15.515625 24.640625 -14.828125 C 24.691406 -15.117188 24.71875 -15.378906 24.71875 -15.609375 C 24.71875 -16.535156 24.40625 -17.296875 23.78125 -17.890625 C 23.164062 -18.492188 22.375 -18.796875 21.40625 -18.796875 C 20.351562 -18.796875 19.300781 -18.597656 18.25 -18.203125 C 17.207031 -17.816406 16.203125 -17.273438 15.234375 -16.578125 C 14.265625 -15.890625 13.359375 -15.082031 12.515625 -14.15625 C 11.679688 -13.238281 10.953125 -12.238281 10.328125 -11.15625 C 9.710938 -10.082031 9.226562 -8.960938 8.875 -7.796875 C 8.519531 -6.640625 8.34375 -5.476562 8.34375 -4.3125 C 8.34375 -3.59375 8.445312 -2.925781 8.65625 -2.3125 C 8.863281 -1.707031 9.15625 -1.179688 9.53125 -0.734375 C 9.914062 -0.296875 10.375 0.0390625 10.90625 0.28125 C 11.445312 0.53125 12.03125 0.65625 12.65625 0.65625 C 13.519531 0.65625 14.398438 0.460938 15.296875 0.078125 C 16.203125 -0.296875 17.082031 -0.8125 17.9375 -1.46875 C 18.800781 -2.125 19.609375 -2.890625 20.359375 -3.765625 C 21.109375 -4.648438 21.769531 -5.59375 22.34375 -6.59375 C 22.914062 -7.59375 23.367188 -8.628906 23.703125 -9.703125 C 24.035156 -10.773438 24.210938 -11.828125 24.234375 -12.859375 C 24.097656 -12.554688 23.878906 -12.207031 23.578125 -11.8125 C 23.285156 -11.425781 22.984375 -11.054688 22.671875 -10.703125 C 22.359375 -10.347656 22.054688 -10.046875 21.765625 -9.796875 C 21.484375 -9.554688 21.273438 -9.4375 21.140625 -9.4375 C 21.066406 -9.4375 21.03125 -9.472656 21.03125 -9.546875 C 21.03125 -9.566406 21.097656 -9.632812 21.234375 -9.75 C 21.535156 -9.957031 21.835938 -10.203125 22.140625 -10.484375 C 22.453125 -10.773438 22.742188 -11.085938 23.015625 -11.421875 C 23.296875 -11.753906 23.539062 -12.085938 23.75 -12.421875 C 23.957031 -12.753906 24.117188 -13.070312 24.234375 -13.375 C 24.140625 -14.476562 23.769531 -15.320312 23.125 -15.90625 C 22.488281 -16.5 21.617188 -16.796875 20.515625 -16.796875 C 18.515625 -16.796875 16.503906 -15.703125 14.484375 -13.515625 C 13.328125 -12.253906 12.425781 -10.957031 11.78125 -9.625 C 11.144531 -8.289062 10.828125 -7.035156 10.828125 -5.859375 C 10.828125 -5.003906 11.0625 -4.316406 11.53125 -3.796875 C 12 -3.285156 12.613281 -3.03125 13.375 -3.03125 C 14.757812 -3.03125 16.125 -3.972656 17.46875 -5.859375 C 18.132812 -6.773438 18.640625 -7.6875 18.984375 -8.59375 C 19.335938 -9.507812 19.515625 -10.347656 19.515625 -11.109375 C 19.515625 -11.671875 19.378906 -12.117188 19.109375 -12.453125 C 18.847656 -12.796875 18.507812 -12.96875 18.09375 -12.96875 C 17.976562 -12.96875 17.898438 -12.960938 17.859375 -12.953125 Z M 21.71875 -22.34375 C 21.894531 -22.34375 22.039062 -22.285156 22.15625 -22.171875 C 22.269531 -22.054688 22.328125 -21.925781 22.328125 -21.78125 C 22.328125 -21.4375 22.203125 -21.125 21.953125 -20.84375 C 21.703125 -20.570312 21.414062 -20.4375 21.09375 -20.4375 C 20.632812 -20.4375 20.40625 -20.65625 20.40625 -21.09375 C 20.40625 -21.414062 20.539062 -21.703125 20.8125 -21.953125 C 21.09375 -22.210938 21.394531 -22.34375 21.71875 -22.34375 Z M 24.09375 -22.34375 C 24.269531 -22.34375 24.410156 -22.289062 24.515625 -22.1875 C 24.628906 -22.082031 24.6875 -21.945312 24.6875 -21.78125 C 24.6875 -21.4375 24.5625 -21.125 24.3125 -20.84375 C 24.070312 -20.570312 23.789062 -20.4375 23.46875 -20.4375 C 23.007812 -20.4375 22.78125 -20.644531 22.78125 -21.0625 C 22.78125 -21.382812 22.914062 -21.675781 23.1875 -21.9375 C 23.46875 -22.207031 23.769531 -22.34375 24.09375 -22.34375 Z M 24.09375 -22.34375 "/></g></g></g><g fill="#014871" fill-opacity="1"><g transform="translate(255.213065, 111.373361)"><g><path d="M 3.203125 -3 C 2.785156 -2.3125 2.484375 -1.773438 2.296875 -1.390625 C 2.117188 -1.015625 2.03125 -0.722656 2.03125 -0.515625 C 2.03125 -0.0976562 2.21875 0.109375 2.59375 0.109375 C 3.050781 0.109375 3.691406 -0.363281 4.515625 -1.3125 C 5.347656 -2.269531 6.253906 -3.578125 7.234375 -5.234375 L 8.515625 -7.4375 C 8.671875 -7.394531 8.800781 -7.375 8.90625 -7.375 C 9.007812 -7.375 9.132812 -7.375 9.28125 -7.375 C 9.5 -7.375 9.660156 -7.378906 9.765625 -7.390625 C 9.878906 -7.398438 10.035156 -7.421875 10.234375 -7.453125 C 9.828125 -6.804688 9.476562 -6.242188 9.1875 -5.765625 C 8.894531 -5.296875 8.582031 -4.785156 8.25 -4.234375 C 7.925781 -3.679688 7.554688 -3.023438 7.140625 -2.265625 C 6.722656 -1.515625 6.191406 -0.5625 5.546875 0.59375 C 6.117188 0.3125 6.628906 0.0195312 7.078125 -0.28125 C 7.535156 -0.59375 7.972656 -0.929688 8.390625 -1.296875 C 8.816406 -1.671875 9.238281 -2.09375 9.65625 -2.5625 C 10.070312 -3.03125 10.53125 -3.578125 11.03125 -4.203125 C 11.144531 -4.367188 11.226562 -4.453125 11.28125 -4.453125 C 11.34375 -4.453125 11.375 -4.425781 11.375 -4.375 C 11.375 -4.351562 11.328125 -4.273438 11.234375 -4.140625 C 11.140625 -4.003906 11.015625 -3.84375 10.859375 -3.65625 C 10.703125 -3.46875 10.535156 -3.269531 10.359375 -3.0625 C 10.179688 -2.851562 10.003906 -2.648438 9.828125 -2.453125 C 9.484375 -2.078125 9.164062 -1.75 8.875 -1.46875 C 8.582031 -1.195312 8.269531 -0.929688 7.9375 -0.671875 C 7.613281 -0.410156 7.25 -0.160156 6.84375 0.078125 C 6.4375 0.328125 5.957031 0.609375 5.40625 0.921875 L 4.71875 2.140625 C 4.332031 2.804688 3.984375 3.394531 3.671875 3.90625 C 3.359375 4.425781 3.035156 4.894531 2.703125 5.3125 C 2.367188 5.726562 2.023438 6.117188 1.671875 6.484375 C 1.316406 6.847656 0.921875 7.203125 0.484375 7.546875 C -0.234375 8.140625 -0.9375 8.59375 -1.625 8.90625 C -2.3125 9.21875 -2.921875 9.375 -3.453125 9.375 C -3.835938 9.375 -4.15625 9.253906 -4.40625 9.015625 C -4.664062 8.773438 -4.796875 8.472656 -4.796875 8.109375 C -4.796875 6.242188 -2.644531 4.3125 1.65625 2.3125 C 1.925781 2.175781 2.191406 2.046875 2.453125 1.921875 C 2.722656 1.804688 2.992188 1.691406 3.265625 1.578125 L 3.453125 1.453125 L 5.921875 -2.921875 C 5.421875 -2.253906 5.003906 -1.707031 4.671875 -1.28125 C 4.335938 -0.863281 4.046875 -0.535156 3.796875 -0.296875 C 3.546875 -0.0546875 3.320312 0.101562 3.125 0.1875 C 2.925781 0.269531 2.710938 0.3125 2.484375 0.3125 C 2.109375 0.3125 1.773438 0.148438 1.484375 -0.171875 C 1.203125 -0.492188 1.0625 -0.875 1.0625 -1.3125 C 1.0625 -1.632812 1.125 -1.960938 1.25 -2.296875 C 1.382812 -2.628906 1.65625 -3.128906 2.0625 -3.796875 L 4.203125 -7.4375 C 4.347656 -7.394531 4.472656 -7.375 4.578125 -7.375 C 4.691406 -7.375 4.8125 -7.375 4.9375 -7.375 C 5.113281 -7.375 5.269531 -7.378906 5.40625 -7.390625 C 5.550781 -7.398438 5.726562 -7.421875 5.9375 -7.453125 Z M 3.3125 1.6875 C 3.21875 1.738281 3.132812 1.785156 3.0625 1.828125 C 3 1.867188 2.914062 1.910156 2.8125 1.953125 C 2.707031 2.003906 2.566406 2.070312 2.390625 2.15625 C 2.222656 2.238281 2.007812 2.347656 1.75 2.484375 C -0.332031 3.515625 -1.910156 4.507812 -2.984375 5.46875 C -4.054688 6.4375 -4.59375 7.328125 -4.59375 8.140625 C -4.59375 8.460938 -4.484375 8.71875 -4.265625 8.90625 C -4.046875 9.101562 -3.765625 9.203125 -3.421875 9.203125 C -2.929688 9.203125 -2.445312 9.078125 -1.96875 8.828125 C -1.488281 8.578125 -0.992188 8.164062 -0.484375 7.59375 C 0.0234375 7.03125 0.578125 6.285156 1.171875 5.359375 C 1.765625 4.429688 2.421875 3.300781 3.140625 1.96875 C 3.160156 1.96875 3.1875 1.9375 3.21875 1.875 C 3.25 1.820312 3.28125 1.757812 3.3125 1.6875 Z M 3.3125 1.6875 "/></g></g></g><g fill="#014871" fill-opacity="1"><g transform="translate(265.384656, 111.373361)"><g><path d="M 8.265625 -14.265625 C 8.640625 -14.179688 8.921875 -14.140625 9.109375 -14.140625 C 9.242188 -14.140625 9.367188 -14.148438 9.484375 -14.171875 C 9.597656 -14.191406 9.769531 -14.222656 10 -14.265625 C 9.945312 -14.171875 9.890625 -14.070312 9.828125 -13.96875 C 9.773438 -13.875 9.71875 -13.78125 9.65625 -13.6875 C 9.46875 -13.40625 9.28125 -13.113281 9.09375 -12.8125 C 8.914062 -12.519531 8.742188 -12.234375 8.578125 -11.953125 C 8.378906 -11.660156 8.191406 -11.363281 8.015625 -11.0625 C 7.835938 -10.769531 7.660156 -10.460938 7.484375 -10.140625 L 5.09375 -6.265625 C 4.550781 -5.378906 4.125 -4.675781 3.8125 -4.15625 C 3.5 -3.632812 3.226562 -3.171875 3 -2.765625 C 2.769531 -2.367188 2.550781 -1.96875 2.34375 -1.5625 C 2.132812 -1.164062 1.867188 -0.65625 1.546875 -0.03125 L 1.375 0.25 C 1.238281 0.21875 1.125 0.195312 1.03125 0.1875 C 0.9375 0.175781 0.800781 0.171875 0.625 0.171875 C 0.476562 0.171875 0.34375 0.175781 0.21875 0.1875 C 0.09375 0.195312 -0.0703125 0.21875 -0.28125 0.25 C -0.144531 0.0078125 -0.0390625 -0.171875 0.03125 -0.296875 C 0.101562 -0.421875 0.234375 -0.644531 0.421875 -0.96875 L 2.0625 -3.796875 C 2.226562 -4.117188 2.398438 -4.429688 2.578125 -4.734375 C 2.765625 -5.046875 2.953125 -5.363281 3.140625 -5.6875 Z M 10.453125 -3.3125 C 9.546875 -2.039062 8.773438 -1.117188 8.140625 -0.546875 C 7.515625 0.0234375 6.960938 0.3125 6.484375 0.3125 C 6.085938 0.3125 5.734375 0.179688 5.421875 -0.078125 C 5.117188 -0.347656 4.96875 -0.65625 4.96875 -1 C 4.96875 -1.09375 4.976562 -1.1875 5 -1.28125 C 5.019531 -1.375 5.050781 -1.488281 5.09375 -1.625 C 5.144531 -1.757812 5.222656 -1.9375 5.328125 -2.15625 C 5.429688 -2.375 5.570312 -2.65625 5.75 -3 C 5.863281 -3.207031 5.9375 -3.375 5.96875 -3.5 C 6.007812 -3.625 6.03125 -3.734375 6.03125 -3.828125 C 6.03125 -4.035156 5.878906 -4.226562 5.578125 -4.40625 C 5.210938 -4.25 4.914062 -4.171875 4.6875 -4.171875 C 4.550781 -4.171875 4.4375 -4.191406 4.34375 -4.234375 C 4.25 -4.285156 4.203125 -4.359375 4.203125 -4.453125 C 4.203125 -4.609375 4.351562 -4.6875 4.65625 -4.6875 C 4.957031 -4.6875 5.234375 -4.640625 5.484375 -4.546875 C 5.640625 -4.617188 5.78125 -4.695312 5.90625 -4.78125 C 6.039062 -4.875 6.1875 -4.992188 6.34375 -5.140625 C 6.507812 -5.296875 6.695312 -5.488281 6.90625 -5.71875 C 7.125 -5.945312 7.394531 -6.25 7.71875 -6.625 C 8.019531 -6.96875 8.296875 -7.210938 8.546875 -7.359375 C 8.796875 -7.503906 9.082031 -7.578125 9.40625 -7.578125 C 9.707031 -7.578125 9.957031 -7.484375 10.15625 -7.296875 C 10.351562 -7.117188 10.453125 -6.878906 10.453125 -6.578125 C 10.453125 -6.347656 10.40625 -6.117188 10.3125 -5.890625 C 10.21875 -5.660156 10.085938 -5.441406 9.921875 -5.234375 C 9.765625 -5.035156 9.585938 -4.875 9.390625 -4.75 C 9.203125 -4.632812 9.023438 -4.578125 8.859375 -4.578125 C 8.691406 -4.578125 8.550781 -4.628906 8.4375 -4.734375 C 8.320312 -4.835938 8.265625 -4.960938 8.265625 -5.109375 C 8.265625 -5.328125 8.320312 -5.507812 8.4375 -5.65625 C 8.5625 -5.8125 8.804688 -5.992188 9.171875 -6.203125 C 9.265625 -6.273438 9.347656 -6.375 9.421875 -6.5 C 9.503906 -6.625 9.546875 -6.742188 9.546875 -6.859375 C 9.546875 -7.085938 9.398438 -7.203125 9.109375 -7.203125 C 8.867188 -7.203125 8.644531 -7.128906 8.4375 -6.984375 C 8.238281 -6.835938 7.960938 -6.554688 7.609375 -6.140625 C 7.242188 -5.722656 6.894531 -5.363281 6.5625 -5.0625 C 6.226562 -4.769531 5.945312 -4.578125 5.71875 -4.484375 C 6.6875 -4.046875 7.171875 -3.53125 7.171875 -2.9375 C 7.171875 -2.769531 7.117188 -2.539062 7.015625 -2.25 C 6.910156 -1.96875 6.734375 -1.570312 6.484375 -1.0625 C 6.367188 -0.851562 6.289062 -0.691406 6.25 -0.578125 C 6.21875 -0.460938 6.203125 -0.351562 6.203125 -0.25 C 6.203125 -0.0078125 6.351562 0.109375 6.65625 0.109375 C 6.84375 0.109375 7.085938 0 7.390625 -0.21875 C 7.703125 -0.4375 8.046875 -0.738281 8.421875 -1.125 C 8.804688 -1.519531 9.210938 -1.988281 9.640625 -2.53125 C 10.066406 -3.070312 10.503906 -3.664062 10.953125 -4.3125 C 11.023438 -4.40625 11.078125 -4.453125 11.109375 -4.453125 C 11.171875 -4.453125 11.203125 -4.425781 11.203125 -4.375 C 11.203125 -4.332031 11.15625 -4.253906 11.0625 -4.140625 Z M 10.453125 -3.3125 "/></g></g></g><g fill="#014871" fill-opacity="1"><g transform="translate(275.35625, 111.373361)"><g><path d="M 8.03125 -3.828125 C 7.4375 -2.878906 7.019531 -2.148438 6.78125 -1.640625 C 6.550781 -1.140625 6.4375 -0.753906 6.4375 -0.484375 C 6.4375 -0.0859375 6.625 0.109375 7 0.109375 C 7.363281 0.109375 7.832031 -0.160156 8.40625 -0.703125 C 8.976562 -1.242188 9.71875 -2.144531 10.625 -3.40625 L 11.0625 -4 L 11.3125 -4.3125 C 11.351562 -4.40625 11.398438 -4.453125 11.453125 -4.453125 C 11.515625 -4.453125 11.546875 -4.425781 11.546875 -4.375 C 11.546875 -4.332031 11.472656 -4.210938 11.328125 -4.015625 C 11.179688 -3.816406 11 -3.570312 10.78125 -3.28125 C 10.5625 -3 10.335938 -2.707031 10.109375 -2.40625 C 9.890625 -2.113281 9.691406 -1.863281 9.515625 -1.65625 C 8.890625 -0.9375 8.382812 -0.425781 8 -0.125 C 7.625 0.164062 7.242188 0.3125 6.859375 0.3125 C 6.460938 0.3125 6.117188 0.148438 5.828125 -0.171875 C 5.546875 -0.492188 5.40625 -0.894531 5.40625 -1.375 C 5.40625 -1.582031 5.441406 -1.796875 5.515625 -2.015625 C 5.585938 -2.234375 5.726562 -2.523438 5.9375 -2.890625 L 5.65625 -2.515625 C 4.875 -1.429688 4.257812 -0.6875 3.8125 -0.28125 C 3.363281 0.113281 2.941406 0.3125 2.546875 0.3125 C 2.128906 0.3125 1.78125 0.15625 1.5 -0.15625 C 1.226562 -0.46875 1.09375 -0.863281 1.09375 -1.34375 C 1.09375 -1.625 1.140625 -1.90625 1.234375 -2.1875 C 1.328125 -2.476562 1.488281 -2.816406 1.71875 -3.203125 L 4.265625 -7.453125 C 4.410156 -7.421875 4.535156 -7.398438 4.640625 -7.390625 C 4.742188 -7.378906 4.863281 -7.375 5 -7.375 C 5.132812 -7.375 5.265625 -7.378906 5.390625 -7.390625 C 5.523438 -7.398438 5.707031 -7.421875 5.9375 -7.453125 L 2.625 -2 C 2.28125 -1.445312 2.109375 -0.953125 2.109375 -0.515625 C 2.109375 -0.0976562 2.289062 0.109375 2.65625 0.109375 C 2.882812 0.109375 3.15625 -0.0078125 3.46875 -0.25 C 3.78125 -0.5 4.128906 -0.851562 4.515625 -1.3125 C 4.910156 -1.769531 5.332031 -2.320312 5.78125 -2.96875 C 6.226562 -3.613281 6.691406 -4.335938 7.171875 -5.140625 L 8.546875 -7.453125 C 8.703125 -7.421875 8.828125 -7.398438 8.921875 -7.390625 C 9.015625 -7.378906 9.128906 -7.375 9.265625 -7.375 C 9.429688 -7.375 9.582031 -7.378906 9.71875 -7.390625 C 9.863281 -7.398438 10.046875 -7.421875 10.265625 -7.453125 Z M 7.625 -10.859375 C 7.800781 -10.859375 7.945312 -10.800781 8.0625 -10.6875 C 8.175781 -10.570312 8.234375 -10.4375 8.234375 -10.28125 C 8.234375 -9.945312 8.109375 -9.640625 7.859375 -9.359375 C 7.609375 -9.078125 7.320312 -8.9375 7 -8.9375 C 6.539062 -8.9375 6.3125 -9.160156 6.3125 -9.609375 C 6.3125 -9.929688 6.445312 -10.21875 6.71875 -10.46875 C 7 -10.726562 7.300781 -10.859375 7.625 -10.859375 Z M 10 -10.859375 C 10.175781 -10.859375 10.316406 -10.804688 10.421875 -10.703125 C 10.535156 -10.597656 10.59375 -10.457031 10.59375 -10.28125 C 10.59375 -9.945312 10.46875 -9.640625 10.21875 -9.359375 C 9.976562 -9.078125 9.695312 -8.9375 9.375 -8.9375 C 8.914062 -8.9375 8.6875 -9.148438 8.6875 -9.578125 C 8.6875 -9.898438 8.820312 -10.191406 9.09375 -10.453125 C 9.375 -10.722656 9.675781 -10.859375 10 -10.859375 Z M 10 -10.859375 "/></g></g></g></svg>